<svg width="118" height="119" viewBox="0 0 118 119" fill="none" xmlns="http://www.w3.org/2000/svg">
<path fill-rule="evenodd" clip-rule="evenodd" d="M59.0698 0.932983C91.616 0.932983 118 27.3169 118 59.8632C118 92.4095 91.616 118.793 59.0698 118.793C26.5235 118.793 0.139526 92.4095 0.139526 59.8632C0.139526 27.3169 26.5235 0.932983 59.0698 0.932983ZM83.9923 63.6413C83.741 63.4701 83.641 63.2523 83.4468 63.0046C83.4026 62.9482 83.3241 62.8571 83.2904 62.8042C83.2281 62.7063 83.2159 62.6558 83.1686 62.5605L82.809 61.8124C82.5353 61.1506 82.3195 60.2479 82.4353 59.3887C82.7298 57.2043 85.2751 58.2415 84.4033 62.452C84.3608 62.6573 84.304 62.8609 84.2377 63.0908L84.0812 63.5325C84.0294 63.6174 84.0468 63.5866 83.9923 63.6413ZM16.0803 64.55C16.0803 66.8361 16.1404 68.5326 16.9577 70.682C17.47 72.0294 18.0595 73.159 18.8597 74.1248C20.267 75.8231 22.7252 77.5845 25.6988 77.9101C29.6606 78.344 33.6432 76.4578 36.7421 74.0807C37.2165 73.7169 37.7172 73.2649 38.1477 72.8481C38.3931 72.6105 39.27 71.5826 39.5296 71.5676C39.6597 72.1513 40.4934 73.014 40.9217 73.3694C42.17 74.4052 44.1282 74.7455 45.6716 73.9929C46.0525 73.8072 46.3168 73.6051 46.6304 73.3526C46.8954 73.1391 47.211 72.6655 47.4679 72.5182C47.5099 72.5707 47.4996 72.5558 47.5451 72.6414L47.7237 73.0689C47.9699 73.6247 48.4577 74.049 49.0132 74.2436C49.9763 74.5809 50.7178 74.4132 51.5989 74.0864C52.4065 73.7869 53.0663 73.4187 53.7831 73.0185C54.471 72.6344 55.1978 72.0224 55.8283 71.7201C55.8145 72.688 54.9248 74.4981 56.6143 74.4981C57.6385 74.4981 58.6329 73.6937 59.0812 72.9111C59.1662 72.7628 59.2447 72.637 59.3002 72.4441C59.3231 72.3644 59.3385 72.2604 59.3427 72.2464L59.6749 70.9094C59.7846 70.2496 59.9345 69.5832 60.1812 68.9713C60.9515 67.0611 62.7433 64.8948 64.3432 63.6203L65.5701 62.8284C65.752 62.7381 65.5582 62.7464 65.7531 62.7923C65.7531 62.7923 65.8628 62.835 65.8706 62.8389C66.0544 62.931 66.1101 63.0203 66.0602 63.3197C65.9236 64.1408 65.2464 65.7277 64.9697 66.5885C64.3293 68.5808 63.1449 72.5694 65.4484 74.0099C67.327 75.1848 70.2806 73.6303 71.8656 72.6188C72.5319 72.1935 73.1635 71.6969 73.7187 71.1586C73.932 70.9518 74.0297 70.813 74.2738 70.6597C74.5064 71.7275 74.606 72.8099 75.0993 73.8126C75.2706 74.1608 75.4061 74.3544 75.8184 74.454C77.5054 74.8613 79.882 72.8403 80.9885 71.7362L82.3083 70.3546C82.5438 70.1112 82.7363 69.8726 82.93 69.6269C83.1217 69.3836 83.3485 69.1238 83.5327 68.8798C83.831 68.4847 84.3889 67.5781 84.6871 67.332C86.4023 67.754 87.6697 66.6815 88.2399 66.5793C88.1234 67.7133 87.8884 67.3448 87.8884 69.4609C87.8884 71.4865 89.3309 73.3497 91.0592 74.1251C92.9859 74.9895 95.182 74.2147 96.4403 72.5783C96.3814 72.6423 96.4288 72.5993 96.4398 72.652C96.4439 72.6717 96.4669 72.6744 96.4722 72.6818C96.7992 73.141 96.6295 74.4104 98.6681 76.0248C99.0928 76.361 99.9909 76.8743 100.512 77.0229C101.196 77.2179 102.448 76.7873 101.075 75.457C100.97 75.3546 100.819 75.1596 100.742 75.0542C99.8164 73.7955 99.6714 72.0188 99.965 70.5049C100.143 69.5869 100.647 67.6995 100.647 67.0668C100.647 65.4301 98.4383 66.1938 97.5991 67.1671C96.9564 67.9123 96.9663 68.2545 96.6301 69.2139C96.2361 70.3384 94.9217 72.2811 93.6298 72.2811C93.5218 72.2811 93.4218 72.2729 93.3137 72.2704C92.9174 72.2613 93.0404 72.2184 92.636 71.9783C91.8212 71.4943 91.4804 69.8805 91.4276 68.9604C91.2672 66.1614 92.6537 62.7295 95.2539 61.636C95.4524 61.5526 95.5541 61.537 95.7659 61.4661C96.2387 61.3079 96.8406 61.3107 97.375 61.4289C98.0437 61.5768 98.844 62.0192 98.844 62.8312C98.844 64.355 97.4776 64.031 97.4776 64.55C97.4776 65.9106 102.059 65.9394 102.059 63.0768V62.7699C102.059 58.8613 95.0479 58.2946 91.2 61.9365C89.6954 63.3605 88.5567 65.2568 86.1275 64.9316C86.1261 64.7521 86.8072 63.3611 86.9174 63.0483C87.6219 61.0502 88.1467 58.2536 86.157 56.9242C84.7724 55.9991 82.9619 56.4874 81.9614 57.3607C80.9381 58.2541 80.2282 59.764 80.2282 61.2352C80.2282 62.6163 80.2537 63.7455 80.9325 64.971C81.6216 66.2151 81.9036 66.081 82.5075 66.6985C82.4614 67.1192 79.022 71.8386 78.0575 71.774C77.7731 71.3052 77.583 69.6436 77.5033 68.9078C77.4248 68.184 77.3417 66.1772 77.4977 65.5328C77.5558 65.2925 77.5851 65.1017 77.6287 64.8274C77.9175 63.0105 78.5415 61.5812 78.7146 60.7123C78.8311 60.127 78.6188 59.736 78.2471 59.5654C77.8914 59.4021 77.5011 59.4333 77.1145 59.5899C76.3231 59.9103 75.6633 60.4381 75.1432 61.1065C73.9944 62.5828 74.0939 65.7515 74.0897 67.9877C74.0888 68.4268 73.6965 68.6645 73.4415 68.9845C72.6279 70.0058 69.4317 72.5183 68.1066 71.7156C67.3862 71.2792 67.8239 70.0321 68.0538 69.0749C68.271 68.1707 68.473 67.2373 68.7131 66.42C69.0879 65.1445 70.1122 62.2497 70.1706 61.154C70.2412 59.8316 69.5746 59.4355 68.339 59.4355C66.6164 59.4355 64.122 61.1715 62.9609 62.3056L62.7679 62.4739C62.39 62.7762 62.1549 63.0785 61.825 63.4396C61.6653 63.6143 61.3257 64.1456 61.1151 64.2236C61.1254 63.7165 61.6771 61.725 61.7153 61.414C61.7623 61.0308 61.6871 61.3432 61.7653 61.0288C62.1598 59.4429 60.4256 59.5448 59.2964 59.925C58.1 60.3278 57.9081 61.2173 57.6482 62.5843L56.6158 67.9351C56.4007 68.9466 56.6044 68.8259 55.9375 69.3997C55.119 70.104 52.9931 71.7538 51.9344 71.8526C50.392 71.9966 51.1788 69.6866 51.3332 68.8976C51.6087 67.4896 52.2754 65.7963 50.1589 66.1999C49.8918 66.2509 49.7162 66.3224 49.4912 66.4447C48.751 66.847 48.1861 67.473 47.8992 68.4299C47.6052 69.4104 47.3472 70.0866 46.7999 70.8221C45.436 72.6549 43.652 72.9315 42.7227 70.5865C42.687 70.4965 42.6289 70.3774 42.6145 70.3449C42.5397 70.1765 42.6013 70.4239 42.5685 70.1381C42.4754 69.328 42.4379 69.6541 42.4379 68.6629C42.4379 66.363 43.5651 63.877 44.7746 62.6543C45.5735 61.8467 46.4428 61.4697 47.5214 61.3973C47.9158 61.3708 48.4689 61.4076 48.9666 61.6195C49.5324 61.8605 49.9038 62.3474 49.9038 63.0154C49.9038 63.8544 49.0311 63.9742 48.5693 64.3463C48.4876 65.4995 50.5246 65.4895 51.3395 65.2366C52.4857 64.8809 53.0736 64.0379 53.0736 62.7085C53.0736 59.2198 47.8146 58.6243 44.4051 60.323C42.7683 61.1384 41.7332 62.1632 40.7407 63.5326C39.6466 65.0423 38.9771 66.9859 38.9771 69.2154C38.9771 70.0266 38.7997 69.9563 38.2559 70.5002C37.8909 70.8651 37.6287 71.111 37.1885 71.4576C36.3714 72.1008 35.6374 72.5672 34.7486 73.0643C33.8559 73.5636 33.0217 73.9756 31.9887 74.3565C31.6764 74.4716 31.2524 74.6391 30.9568 74.6702C29.895 74.7817 29.9902 74.9206 28.4384 74.9206C24.1629 74.9206 21.5138 70.906 21.0138 66.9514C20.744 64.8179 20.8676 62.7237 21.3343 60.6291C21.3882 60.3869 21.374 60.235 21.4736 59.9808L22.1392 57.6925C22.461 56.7252 22.8175 55.8286 23.2218 54.9063C24.2894 52.4709 25.871 49.74 27.6775 47.7662C28.002 47.4117 28.2849 47.0935 28.5951 46.7828C28.9818 46.3955 29.1965 46.2007 29.6082 45.8286C33.4133 42.3897 37.4295 42.4646 37.4295 48.5284C37.4295 49.4334 37.27 50.4026 36.9791 51.1225C36.1912 53.0721 34.8571 53.7343 34.3297 54.4182C33.7376 55.186 34.4199 55.6813 35.47 55.383C37.685 54.7539 40.4324 52.7359 40.793 50.2788C40.9487 49.2175 41.0104 49.8231 41.0104 48.2829C41.0104 44.542 37.6141 41.7835 34.0866 41.7544C33.5269 41.7498 33.0429 41.7736 32.5079 41.8481L31.1701 42.1187C29.0231 42.659 26.388 44.4253 24.8127 46.0079C24.5599 46.2618 24.2011 46.5519 23.9654 46.816C23.666 47.1512 23.3837 47.3981 23.1367 47.7091C21.9774 49.1688 21.2715 49.8987 20.2329 51.6252C18.1022 55.1669 16.0803 60.2643 16.0803 64.55Z" fill="#D0D3D9"/>
</svg>
