<?xml version="1.0" encoding="UTF-8"?>
<!DOCTYPE svg PUBLIC "-//W3C//DTD SVG 1.1//EN" "http://www.w3.org/Graphics/SVG/1.1/DTD/svg11.dtd">
<!-- Creator: CorelDRAW 2020 (64-Bit) -->
<svg xmlns="http://www.w3.org/2000/svg" xml:space="preserve" width="299.212mm" height="298.434mm" version="1.1" style="shape-rendering:geometricPrecision; text-rendering:geometricPrecision; image-rendering:optimizeQuality; fill-rule:evenodd; clip-rule:evenodd"
viewBox="0 0 29921.16 29843.44"
 xmlns:xlink="http://www.w3.org/1999/xlink"
 xmlns:xodm="http://www.corel.com/coreldraw/odm/2003">
 <defs>
  <style type="text/css">
   <![CDATA[
    .fil0 {fill:black}
   ]]>
  </style>
 </defs>
 <g id="Capa_x0020_1">
  <metadata id="CorelCorpID_0Corel-Layer"/>
  <path class="fil0" d="M9947.82 0l5673.37 0 4352.15 0 9947.82 0 0 9947.82 0 4973.9 0 4973.9c0,5471.3 -4476.51,9947.82 -9947.82,9947.82l-10025.52 0c-5471.31,0 -9947.82,-4476.52 -9947.82,-9947.82l0 -9947.8c0,-5471.3 4476.51,-9947.82 9947.82,-9947.82zm-4740.76 9947.82c-226.79,-301.78 -248.17,-612.79 -77.72,-932.6l3053.9 -3070.18c473.68,-404.09 915.51,-322.96 1330.91,160.29l13046.73 13037.18 335 1933.13 -2482.26 2501.53 -1923.52 -320.58 -13283.04 -13308.77zm16262.47 13770.43l1636.87 -1627.23 305.95 1938.12 -1942.82 -310.89z"/>
 </g>
</svg>
