<svg width="133" height="131" viewBox="0 0 133 131" fill="none" xmlns="http://www.w3.org/2000/svg">
<path fill-rule="evenodd" clip-rule="evenodd" d="M44.1655 -0.00952148H69.3537H88.676H132.842V43.5268V65.2949V87.0631C132.842 111.008 112.967 130.599 88.676 130.599H44.1655C19.8745 130.599 0 111.008 0 87.0631V43.5268C0 19.5818 19.8745 -0.00952148 44.1655 -0.00952148ZM23.1179 43.5268C22.111 42.2061 22.0161 40.845 22.7728 39.4453L36.3313 26.0088C38.4343 24.2403 40.3959 24.5953 42.2402 26.7103L100.164 83.7671L101.651 92.2274L90.6308 103.175L82.0909 101.772L23.1179 43.5268ZM95.3187 103.793L102.586 96.6712L103.944 105.153L95.3187 103.793Z" fill="#D0D3D9"/>
</svg>
