<svg width="259" height="203" viewBox="0 0 259 203" fill="none" xmlns="http://www.w3.org/2000/svg">
<path d="M258.366 27.4039C257.289 21.9639 254.862 16.8224 251.321 12.4998C250.601 11.5923 249.85 10.7849 249.027 9.96594C242.727 3.63257 233.964 0 224.983 0H34.016C24.9353 0 16.3949 3.54103 9.96796 9.96948C9.15451 10.7809 8.40032 11.5963 7.65364 12.5327C4.12782 16.837 1.71132 21.9715 0.660652 27.4191C0.221566 29.5583 0 31.7751 0 34.0175V168.139C0 172.806 0.947978 177.349 2.82725 181.669C4.45359 185.504 6.92118 189.141 9.96594 192.185C10.7328 192.948 11.4947 193.652 12.3081 194.338C18.3956 199.38 26.1039 202.154 34.016 202.154H224.983C232.947 202.154 240.647 199.369 246.718 194.283C247.529 193.626 248.282 192.937 249.034 192.185C251.977 189.245 254.317 185.866 255.997 182.141L256.219 181.61C258.064 177.372 259 172.844 259 168.14V34.0175C259 31.8044 258.787 29.5731 258.366 27.4039ZM17.6155 21.7094C18.0966 21.0053 18.7107 20.2824 19.4943 19.4928C23.3838 15.6053 28.5421 13.466 34.0155 13.466H224.983C230.504 13.466 235.663 15.6088 239.51 19.5004C240.174 20.1716 240.809 20.9168 241.362 21.6614L242.823 23.6241L140.892 112.461C137.749 115.216 133.703 116.732 129.499 116.732C125.335 116.732 121.292 115.219 118.113 112.465L16.2836 23.6494L17.6155 21.7094ZM13.5343 169.324C13.4791 168.959 13.4665 168.553 13.4665 168.139V36.7949L92.5679 105.799L14.2647 174.071L13.5343 169.324ZM235.173 185.98C232.112 187.746 228.586 188.684 224.983 188.684H34.016C30.4108 188.684 26.8864 187.746 23.827 185.98L20.6259 184.125L101.531 113.619L110.398 121.331C115.716 125.948 122.499 128.494 129.499 128.494C136.526 128.494 143.32 125.948 148.634 121.331L157.498 113.615L238.375 184.129L235.173 185.98ZM245.53 168.139C245.53 168.546 245.523 168.947 245.471 169.305L244.77 174.096L166.434 105.837L245.53 36.8283V168.139Z" fill="white"/>
</svg>
