<svg width="41" height="41" viewBox="0 0 41 41" fill="none" xmlns="http://www.w3.org/2000/svg">
<path d="M40.8996 8.8375C40.7292 7.97634 40.345 7.16243 39.7844 6.47816C39.6705 6.3345 39.5515 6.2067 39.4213 6.07705C38.424 5.07447 37.0367 4.49943 35.6151 4.49943H5.38477C3.94729 4.49943 2.59533 5.05998 1.57794 6.07761C1.44917 6.20606 1.32978 6.33514 1.21158 6.48337C0.653438 7.16475 0.270904 7.97754 0.104582 8.8399C0.0350742 9.17855 0 9.52946 0 9.88444V31.1161C0 31.8548 0.150066 32.574 0.447557 33.2578C0.705008 33.865 1.09563 34.4407 1.57762 34.9225C1.69902 35.0433 1.81962 35.1548 1.94838 35.2634C2.91204 36.0615 4.13227 36.5007 5.38477 36.5007H35.6151C36.8757 36.5007 38.0947 36.0598 39.0558 35.2546C39.1842 35.1507 39.3033 35.0415 39.4224 34.9225C39.8883 34.4571 40.2586 33.9223 40.5247 33.3326L40.5598 33.2485C40.8518 32.5777 41 31.8608 41 31.1162V9.88444C41 9.5341 40.9662 9.18088 40.8996 8.8375ZM2.78856 7.93606C2.86471 7.82459 2.96193 7.71016 3.08597 7.58516C3.70169 6.96976 4.51825 6.63111 5.38469 6.63111H35.615C36.489 6.63111 37.3058 6.97032 37.9147 7.58636C38.0199 7.69262 38.1203 7.81058 38.2079 7.92846L38.4391 8.23916L22.3034 22.3022C21.8059 22.7383 21.1654 22.9783 20.4998 22.9783C19.8406 22.9783 19.2007 22.7388 18.6974 22.3027L2.57771 8.24316L2.78856 7.93606ZM2.14249 31.3036C2.13376 31.2458 2.13176 31.1815 2.13176 31.1161V10.3241L14.6536 21.2476L2.25812 32.055L2.14249 31.3036ZM37.2282 33.9403C36.7436 34.2199 36.1855 34.3683 35.6151 34.3683H5.38477C4.81406 34.3683 4.25615 34.2199 3.77184 33.9403L3.26511 33.6466L16.0725 22.4854L17.4761 23.7062C18.318 24.4372 19.3917 24.8402 20.4999 24.8402C21.6122 24.8402 22.6877 24.4372 23.529 23.7062L24.9321 22.4848L37.7351 33.6472L37.2282 33.9403ZM38.8677 31.1161C38.8677 31.1804 38.8665 31.244 38.8584 31.3006L38.7474 32.0591L26.3467 21.2535L38.8677 10.3294V31.1161Z" fill="black"/>
</svg>
