<?xml version="1.0" encoding="UTF-8"?>
<!DOCTYPE svg PUBLIC "-//W3C//DTD SVG 1.1//EN" "http://www.w3.org/Graphics/SVG/1.1/DTD/svg11.dtd">
<!-- Creator: CorelDRAW -->
<svg xmlns="http://www.w3.org/2000/svg" xml:space="preserve" width="10.848mm" height="8.467mm" version="1.1" style="shape-rendering:geometricPrecision; text-rendering:geometricPrecision; image-rendering:optimizeQuality; fill-rule:evenodd; clip-rule:evenodd"
viewBox="0 0 41.15 32.12"
 xmlns:xlink="http://www.w3.org/1999/xlink"
 xmlns:xodm="http://www.corel.com/coreldraw/odm/2003">
 <defs>
  <style type="text/css">
   <![CDATA[
    .fil0 {fill:#FEFEFE;fill-rule:nonzero}
   ]]>
  </style>
 </defs>
 <g id="Capa_x0020_1">
  <metadata id="CorelCorpID_0Corel-Layer"/>
  <path class="fil0" d="M41.05 4.35c-0.17,-0.86 -0.56,-1.68 -1.12,-2.37 -0.11,-0.14 -0.23,-0.27 -0.36,-0.4 -1,-1.01 -2.39,-1.58 -3.82,-1.58l-30.34 0c-1.44,0 -2.8,0.56 -3.82,1.58 -0.13,0.13 -0.25,0.26 -0.37,0.41 -0.56,0.68 -0.94,1.5 -1.11,2.37 -0.07,0.34 -0.11,0.69 -0.11,1.05l0 21.31c0,0.74 0.15,1.46 0.45,2.15 0.26,0.61 0.65,1.19 1.13,1.67 0.12,0.12 0.24,0.23 0.37,0.34 0.97,0.8 2.19,1.24 3.45,1.24l30.34 0c1.27,0 2.49,-0.44 3.45,-1.25 0.13,-0.1 0.25,-0.21 0.37,-0.33 0.47,-0.47 0.84,-1 1.11,-1.6l0.04 -0.08c0.29,-0.67 0.44,-1.39 0.44,-2.14l0 -21.31c0,-0.35 -0.03,-0.71 -0.1,-1.05zm-38.25 -0.9c0.08,-0.11 0.17,-0.23 0.3,-0.35 0.62,-0.62 1.44,-0.96 2.31,-0.96l30.34 0c0.88,0 1.7,0.34 2.31,0.96 0.11,0.11 0.21,0.22 0.29,0.34l0.23 0.31 -16.19 14.11c-0.5,0.44 -1.14,0.68 -1.81,0.68 -0.66,0 -1.3,-0.24 -1.81,-0.68l-16.18 -14.11 0.21 -0.31zm-0.65 23.45c-0.01,-0.06 -0.01,-0.12 -0.01,-0.19l0 -20.87 12.57 10.96 -12.44 10.85 -0.12 -0.75zm35.21 2.65c-0.49,0.28 -1.05,0.43 -1.62,0.43l-30.34 0c-0.57,0 -1.13,-0.15 -1.62,-0.43l-0.51 -0.29 12.85 -11.2 1.41 1.23c0.85,0.73 1.92,1.14 3.04,1.14 1.12,0 2.2,-0.4 3.04,-1.14l1.41 -1.23 12.85 11.2 -0.51 0.29zm1.65 -2.83c0,0.06 -0,0.13 -0.01,0.19l-0.11 0.76 -12.45 -10.84 12.57 -10.96 0 20.86z"/>
 </g>
</svg>
