<?xml version="1.0" encoding="UTF-8"?>
<!DOCTYPE svg PUBLIC "-//W3C//DTD SVG 1.1//EN" "http://www.w3.org/Graphics/SVG/1.1/DTD/svg11.dtd">
<!-- Creator: CorelDRAW -->
<svg xmlns="http://www.w3.org/2000/svg" xml:space="preserve" width="19.0576mm" height="22.7541mm" version="1.1" style="shape-rendering:geometricPrecision; text-rendering:geometricPrecision; image-rendering:optimizeQuality; fill-rule:evenodd; clip-rule:evenodd"
viewBox="0 0 151.84 181.29"
 xmlns:xlink="http://www.w3.org/1999/xlink"
 xmlns:xodm="http://www.corel.com/coreldraw/odm/2003">
 <defs>
  <style type="text/css">
   <![CDATA[
    .fil0 {fill:#EC268F;fill-rule:nonzero}
   ]]>
  </style>
 </defs>
 <g id="Capa_x0020_1">
  <metadata id="CorelCorpID_0Corel-Layer"/>
  <g id="_1828265311664">
   <g id="Pentool">
    <path class="fil0" d="M149.7 73.78l-4.26 0c-0.72,-28.43 -18.8,-53.54 -45.53,-63.24l35.34 0c0.96,3.72 4.32,6.32 8.16,6.32 4.66,0 8.43,-3.78 8.43,-8.43 0,-4.66 -3.78,-8.43 -8.43,-8.43 -3.85,0 -7.2,2.6 -8.16,6.32l-50.89 0 0 -4.22c0,-1.16 -0.94,-2.11 -2.11,-2.11l-12.65 0c-1.16,0 -2.11,0.94 -2.11,2.11l0 4.22 -50.89 0c-0.96,-3.72 -4.32,-6.32 -8.16,-6.32 -4.66,0 -8.43,3.78 -8.43,8.43 0,4.66 3.78,8.43 8.43,8.43 3.85,0 7.2,-2.6 8.16,-6.32l35.34 0c-26.74,9.7 -44.81,34.81 -45.53,63.24l-4.27 -0c-1.16,0 -2.11,0.94 -2.11,2.11l0 12.65c0,1.16 0.94,2.11 2.11,2.11l12.65 0c1.16,0 2.11,-0.94 2.11,-2.11l-0 -12.65c0,-1.16 -0.94,-2.11 -2.11,-2.11l-4.17 0c0.87,-32.06 25.05,-58.71 56.87,-62.69l-0 3.66c0,1.16 0.94,2.11 2.11,2.11l12.65 0c1.16,0 2.11,-0.94 2.11,-2.11l-0 -3.66c31.82,3.98 56,30.62 56.87,62.69l-4.17 -0c-1.16,0 -2.11,0.94 -2.11,2.11l0 12.65c0,1.16 0.94,2.11 2.11,2.11l12.65 0c1.16,0 2.11,-0.94 2.11,-2.11l0 -12.65c0,-1.16 -0.94,-2.11 -2.11,-2.11z"/>
    <path class="fil0" d="M82.02 26.46c-0.36,-0.71 -1.09,-1.17 -1.89,-1.17 -1.16,0 -2.11,0.94 -2.11,2.11 0,0 0,0 0,0l0 68.32c0,0.83 0.49,1.59 1.25,1.93 3.08,1.34 5.07,4.38 5.07,7.73 0,4.66 -3.78,8.43 -8.43,8.43 -4.66,0 -8.43,-3.78 -8.43,-8.43 0,-3.36 1.99,-6.39 5.07,-7.73 0.76,-0.34 1.25,-1.09 1.25,-1.93l-0 -68.32c0,0 0,-0 0,-0 0,-1.16 -0.94,-2.11 -2.11,-2.11 -0.8,0 -1.53,0.45 -1.89,1.17l-40.05 80.1c-0.15,0.29 -0.22,0.62 -0.22,0.94 0,0.33 0.08,0.65 0.22,0.94l15.34 30.68 61.63 0 15.34 -30.68c0.15,-0.29 0.22,-0.62 0.22,-0.94 0,-0.33 -0.08,-0.65 -0.22,-0.94l-40.05 -80.1z"/>
    <path class="fil0" d="M40.08 143.35l71.67 0c1.16,-0 2.11,0.94 2.11,2.11l0 12.65c0,1.16 -0.94,2.11 -2.11,2.11l-71.67 0c-1.16,-0 -2.11,-0.94 -2.11,-2.11l-0 -12.65c0,-1.16 0.94,-2.11 2.11,-2.11z"/>
    <path class="fil0" d="M44.3 179.18c0,1.16 0.94,2.11 2.11,2.11l59.02 0c1.16,-0 2.11,-0.94 2.11,-2.11l0 -14.76 -63.24 0 0 14.76z"/>
   </g>
  </g>
 </g>
</svg>
