<?xml version="1.0" encoding="UTF-8"?>
<!DOCTYPE svg PUBLIC "-//W3C//DTD SVG 1.1//EN" "http://www.w3.org/Graphics/SVG/1.1/DTD/svg11.dtd">
<!-- Creator: CorelDRAW 2020 (64-Bit) -->
<svg xmlns="http://www.w3.org/2000/svg" xml:space="preserve" width="119.025mm" height="54.8039mm" version="1.1" style="shape-rendering:geometricPrecision; text-rendering:geometricPrecision; image-rendering:optimizeQuality; fill-rule:evenodd; clip-rule:evenodd"
viewBox="0 0 4615.86 2125.34"
 xmlns:xlink="http://www.w3.org/1999/xlink"
 xmlns:xodm="http://www.corel.com/coreldraw/odm/2003">
 <defs>
  <style type="text/css">
   <![CDATA[
    .fil0 {fill:#E6E6E6}
   ]]>
  </style>
 </defs>
 <g id="Capa_x0020_1">
  <metadata id="CorelCorpID_0Corel-Layer"/>
  <circle class="fil0" cx="40.32" cy="40.32" r="40.32"/>
  <circle class="fil0" cx="389.18" cy="40.32" r="40.32"/>
  <circle class="fil0" cx="738.04" cy="40.32" r="40.32"/>
  <circle class="fil0" cx="1086.91" cy="40.32" r="40.32"/>
  <circle class="fil0" cx="1435.77" cy="40.32" r="40.32"/>
  <circle class="fil0" cx="1784.64" cy="40.32" r="40.32"/>
  <circle class="fil0" cx="2133.5" cy="40.32" r="40.32"/>
  <circle class="fil0" cx="2482.36" cy="40.32" r="40.32"/>
  <circle class="fil0" cx="2831.23" cy="40.32" r="40.32"/>
  <circle class="fil0" cx="3180.09" cy="40.32" r="40.32"/>
  <circle class="fil0" cx="3528.96" cy="40.32" r="40.32"/>
  <circle class="fil0" cx="3877.82" cy="40.32" r="40.32"/>
  <circle class="fil0" cx="4226.68" cy="40.32" r="40.32"/>
  <circle class="fil0" cx="4575.55" cy="40.32" r="40.32"/>
  <circle class="fil0" cx="40.32" cy="267.51" r="40.32"/>
  <circle class="fil0" cx="389.18" cy="267.51" r="40.32"/>
  <circle class="fil0" cx="738.04" cy="267.51" r="40.32"/>
  <circle class="fil0" cx="1086.91" cy="267.51" r="40.32"/>
  <circle class="fil0" cx="1435.77" cy="267.51" r="40.32"/>
  <circle class="fil0" cx="1784.64" cy="267.51" r="40.32"/>
  <circle class="fil0" cx="2133.5" cy="267.51" r="40.32"/>
  <circle class="fil0" cx="2482.36" cy="267.51" r="40.32"/>
  <circle class="fil0" cx="2831.23" cy="267.51" r="40.32"/>
  <circle class="fil0" cx="3180.09" cy="267.51" r="40.32"/>
  <circle class="fil0" cx="3528.96" cy="267.51" r="40.32"/>
  <circle class="fil0" cx="3877.82" cy="267.51" r="40.32"/>
  <circle class="fil0" cx="4226.68" cy="267.51" r="40.32"/>
  <circle class="fil0" cx="4575.55" cy="267.51" r="40.32"/>
  <circle class="fil0" cx="40.32" cy="494.7" r="40.32"/>
  <circle class="fil0" cx="389.18" cy="494.7" r="40.32"/>
  <circle class="fil0" cx="738.04" cy="494.7" r="40.32"/>
  <circle class="fil0" cx="1086.91" cy="494.7" r="40.32"/>
  <circle class="fil0" cx="1435.77" cy="494.7" r="40.32"/>
  <circle class="fil0" cx="1784.64" cy="494.7" r="40.32"/>
  <circle class="fil0" cx="2133.5" cy="494.7" r="40.32"/>
  <circle class="fil0" cx="2482.36" cy="494.7" r="40.32"/>
  <circle class="fil0" cx="2831.23" cy="494.7" r="40.32"/>
  <circle class="fil0" cx="3180.09" cy="494.7" r="40.32"/>
  <circle class="fil0" cx="3528.96" cy="494.7" r="40.32"/>
  <circle class="fil0" cx="3877.82" cy="494.7" r="40.32"/>
  <circle class="fil0" cx="4226.68" cy="494.7" r="40.32"/>
  <circle class="fil0" cx="4575.55" cy="494.7" r="40.32"/>
  <circle class="fil0" cx="40.32" cy="721.88" r="40.32"/>
  <circle class="fil0" cx="389.18" cy="721.88" r="40.32"/>
  <circle class="fil0" cx="738.04" cy="721.88" r="40.32"/>
  <circle class="fil0" cx="1086.91" cy="721.88" r="40.32"/>
  <circle class="fil0" cx="1435.77" cy="721.88" r="40.32"/>
  <circle class="fil0" cx="1784.64" cy="721.88" r="40.32"/>
  <circle class="fil0" cx="2133.5" cy="721.88" r="40.32"/>
  <circle class="fil0" cx="2482.36" cy="721.88" r="40.32"/>
  <circle class="fil0" cx="2831.23" cy="721.88" r="40.32"/>
  <circle class="fil0" cx="3180.09" cy="721.88" r="40.32"/>
  <circle class="fil0" cx="3528.96" cy="721.88" r="40.32"/>
  <circle class="fil0" cx="3877.82" cy="721.88" r="40.32"/>
  <circle class="fil0" cx="4226.68" cy="721.88" r="40.32"/>
  <circle class="fil0" cx="4575.55" cy="721.88" r="40.32"/>
  <circle class="fil0" cx="40.32" cy="949.07" r="40.32"/>
  <circle class="fil0" cx="389.18" cy="949.07" r="40.32"/>
  <circle class="fil0" cx="738.04" cy="949.07" r="40.32"/>
  <circle class="fil0" cx="1086.91" cy="949.07" r="40.32"/>
  <circle class="fil0" cx="1435.77" cy="949.07" r="40.32"/>
  <circle class="fil0" cx="1784.64" cy="949.07" r="40.32"/>
  <circle class="fil0" cx="2133.5" cy="949.07" r="40.32"/>
  <circle class="fil0" cx="2482.36" cy="949.07" r="40.32"/>
  <circle class="fil0" cx="2831.23" cy="949.07" r="40.32"/>
  <circle class="fil0" cx="3180.09" cy="949.07" r="40.32"/>
  <circle class="fil0" cx="3528.96" cy="949.07" r="40.32"/>
  <circle class="fil0" cx="3877.82" cy="949.07" r="40.32"/>
  <circle class="fil0" cx="4226.68" cy="949.07" r="40.32"/>
  <circle class="fil0" cx="4575.55" cy="949.07" r="40.32"/>
  <circle class="fil0" cx="40.32" cy="1176.26" r="40.32"/>
  <circle class="fil0" cx="389.18" cy="1176.26" r="40.32"/>
  <circle class="fil0" cx="738.04" cy="1176.26" r="40.32"/>
  <circle class="fil0" cx="1086.91" cy="1176.26" r="40.32"/>
  <circle class="fil0" cx="1435.77" cy="1176.26" r="40.32"/>
  <circle class="fil0" cx="1784.64" cy="1176.26" r="40.32"/>
  <circle class="fil0" cx="2133.5" cy="1176.26" r="40.32"/>
  <circle class="fil0" cx="2482.36" cy="1176.26" r="40.32"/>
  <circle class="fil0" cx="2831.23" cy="1176.26" r="40.32"/>
  <circle class="fil0" cx="3180.09" cy="1176.26" r="40.32"/>
  <circle class="fil0" cx="3528.96" cy="1176.26" r="40.32"/>
  <circle class="fil0" cx="3877.82" cy="1176.26" r="40.32"/>
  <circle class="fil0" cx="4226.68" cy="1176.26" r="40.32"/>
  <circle class="fil0" cx="4575.55" cy="1176.26" r="40.32"/>
  <circle class="fil0" cx="40.32" cy="1403.45" r="40.32"/>
  <circle class="fil0" cx="389.18" cy="1403.45" r="40.32"/>
  <circle class="fil0" cx="738.04" cy="1403.45" r="40.32"/>
  <circle class="fil0" cx="1086.91" cy="1403.45" r="40.32"/>
  <circle class="fil0" cx="1435.77" cy="1403.45" r="40.32"/>
  <circle class="fil0" cx="1784.64" cy="1403.45" r="40.32"/>
  <circle class="fil0" cx="2133.5" cy="1403.45" r="40.32"/>
  <circle class="fil0" cx="2482.36" cy="1403.45" r="40.32"/>
  <circle class="fil0" cx="2831.23" cy="1403.45" r="40.32"/>
  <circle class="fil0" cx="3180.09" cy="1403.45" r="40.32"/>
  <circle class="fil0" cx="3528.96" cy="1403.45" r="40.32"/>
  <circle class="fil0" cx="3877.82" cy="1403.45" r="40.32"/>
  <circle class="fil0" cx="4226.68" cy="1403.45" r="40.32"/>
  <circle class="fil0" cx="4575.55" cy="1403.45" r="40.32"/>
  <circle class="fil0" cx="40.32" cy="1630.64" r="40.32"/>
  <circle class="fil0" cx="389.18" cy="1630.64" r="40.32"/>
  <circle class="fil0" cx="738.04" cy="1630.64" r="40.32"/>
  <circle class="fil0" cx="1086.91" cy="1630.64" r="40.32"/>
  <circle class="fil0" cx="1435.77" cy="1630.64" r="40.32"/>
  <circle class="fil0" cx="1784.64" cy="1630.64" r="40.32"/>
  <circle class="fil0" cx="2133.5" cy="1630.64" r="40.32"/>
  <circle class="fil0" cx="2482.36" cy="1630.64" r="40.32"/>
  <circle class="fil0" cx="2831.23" cy="1630.64" r="40.32"/>
  <circle class="fil0" cx="3180.09" cy="1630.64" r="40.32"/>
  <circle class="fil0" cx="3528.96" cy="1630.64" r="40.32"/>
  <circle class="fil0" cx="3877.82" cy="1630.64" r="40.32"/>
  <circle class="fil0" cx="4226.68" cy="1630.64" r="40.32"/>
  <circle class="fil0" cx="4575.55" cy="1630.64" r="40.32"/>
  <circle class="fil0" cx="40.32" cy="1857.83" r="40.32"/>
  <circle class="fil0" cx="389.18" cy="1857.83" r="40.32"/>
  <circle class="fil0" cx="738.04" cy="1857.83" r="40.32"/>
  <circle class="fil0" cx="1086.91" cy="1857.83" r="40.32"/>
  <circle class="fil0" cx="1435.77" cy="1857.83" r="40.32"/>
  <circle class="fil0" cx="1784.64" cy="1857.83" r="40.32"/>
  <circle class="fil0" cx="2133.5" cy="1857.83" r="40.32"/>
  <circle class="fil0" cx="2482.36" cy="1857.83" r="40.32"/>
  <circle class="fil0" cx="2831.23" cy="1857.83" r="40.32"/>
  <circle class="fil0" cx="3180.09" cy="1857.83" r="40.32"/>
  <circle class="fil0" cx="3528.96" cy="1857.83" r="40.32"/>
  <circle class="fil0" cx="3877.82" cy="1857.83" r="40.32"/>
  <circle class="fil0" cx="4226.68" cy="1857.83" r="40.32"/>
  <circle class="fil0" cx="4575.55" cy="1857.83" r="40.32"/>
  <circle class="fil0" cx="40.32" cy="2085.02" r="40.32"/>
  <circle class="fil0" cx="389.18" cy="2085.02" r="40.32"/>
  <circle class="fil0" cx="738.04" cy="2085.02" r="40.32"/>
  <circle class="fil0" cx="1086.91" cy="2085.02" r="40.32"/>
  <circle class="fil0" cx="1435.77" cy="2085.02" r="40.32"/>
  <circle class="fil0" cx="1784.64" cy="2085.02" r="40.32"/>
  <circle class="fil0" cx="2133.5" cy="2085.02" r="40.32"/>
  <circle class="fil0" cx="2482.36" cy="2085.02" r="40.32"/>
  <circle class="fil0" cx="2831.23" cy="2085.02" r="40.32"/>
  <circle class="fil0" cx="3180.09" cy="2085.02" r="40.32"/>
  <circle class="fil0" cx="3528.96" cy="2085.02" r="40.32"/>
  <circle class="fil0" cx="3877.82" cy="2085.02" r="40.32"/>
  <circle class="fil0" cx="4226.68" cy="2085.02" r="40.32"/>
  <circle class="fil0" cx="4575.55" cy="2085.02" r="40.32"/>
 </g>
</svg>
