<?xml version="1.0" encoding="UTF-8"?>
<!DOCTYPE svg PUBLIC "-//W3C//DTD SVG 1.1//EN" "http://www.w3.org/Graphics/SVG/1.1/DTD/svg11.dtd">
<!-- Creator: CorelDRAW -->
<svg xmlns="http://www.w3.org/2000/svg" xml:space="preserve" width="24.2068mm" height="19.3654mm" version="1.1" style="shape-rendering:geometricPrecision; text-rendering:geometricPrecision; image-rendering:optimizeQuality; fill-rule:evenodd; clip-rule:evenodd"
viewBox="0 0 293.8 235.04"
 xmlns:xlink="http://www.w3.org/1999/xlink"
 xmlns:xodm="http://www.corel.com/coreldraw/odm/2003"
 role="img"
 focusable="false"
 aria-hidden="true">
 <defs>
  <style type="text/css">
   <![CDATA[
    .fil0 {fill:#EC268F;fill-rule:nonzero}
   ]]>
  </style>
 </defs>
 <g id="Capa_x0020_1">
  <metadata id="CorelCorpID_0Corel-Layer"/>
  <g id="_1828269819568">
   <path class="fil0" d="M286.46 161.6l-7.35 0 0 -49.63c0.01,-5.83 -2.34,-11.44 -6.47,-15.56l-45.86 -45.86c-4.13,-4.14 -9.74,-6.48 -15.56,-6.48l-20.24 0 0 -22.03c0,-12.16 -9.87,-22.03 -22.04,-22.03l-117.52 0c-12.16,0 -22.03,9.87 -22.03,22.03l0 22.03 -25.71 0c-2.02,0 -3.67,1.66 -3.67,3.67l0 7.35c0,2.02 1.66,3.67 3.67,3.67l124.87 0c2.02,0 3.67,1.66 3.67,3.67l0 7.35c-0.01,2.02 -1.66,3.66 -3.67,3.66l-110.17 0c-2.03,0 -3.68,1.66 -3.68,3.67l0 7.35c0,2.02 1.66,3.67 3.67,3.67l95.49 0c2.02,0 3.67,1.66 3.67,3.67l0 7.35c0,2.02 -1.66,3.66 -3.67,3.66l-110.17 0c-2.02,0 -3.67,1.66 -3.67,3.67l0 7.35c0,2.02 1.66,3.67 3.67,3.67l95.49 0c2.02,0 3.66,1.66 3.66,3.67l0 7.35c0,2.02 -1.65,3.67 -3.66,3.67l-69.78 0 0 58.76c0,24.33 19.74,44.08 44.08,44.08 24.33,0 44.08,-19.74 44.08,-44.08l58.76 0c0,24.33 19.74,44.08 44.08,44.08 24.33,0 44.08,-19.74 44.08,-44.08l22.03 0c4.02,0.01 7.33,-3.3 7.33,-7.34l0 -14.69c0,-4.03 -3.3,-7.34 -7.35,-7.34zm-213.01 51.41c-12.16,0 -22.03,-9.87 -22.03,-22.03 0,-12.17 9.87,-22.04 22.03,-22.04 12.17,0 22.03,9.87 22.03,22.03 0,12.17 -9.87,22.03 -22.03,22.03l0 0.01zm146.91 0c-12.17,0 -22.04,-9.87 -22.04,-22.03 0,-12.17 9.87,-22.04 22.04,-22.04 12.17,0 22.03,9.87 22.03,22.03 0,12.17 -9.87,22.03 -22.03,22.03l0 0.01zm36.72 -95.49l-66.1 0 0 -51.41 20.24 0 45.86 45.86 0 5.55z"/>
  </g>
 </g>
</svg>
