<svg width="115" height="112" viewBox="0 0 115 112" fill="none" xmlns="http://www.w3.org/2000/svg">
<path fill-rule="evenodd" clip-rule="evenodd" d="M1.50476 1.88513H113.136V110.326H1.50476V1.88513ZM6.3139 6.55586H108.329V105.656H6.3139V6.55586Z" fill="#D0D3D9" fill-opacity="0.83" stroke="#D0D3D9" stroke-width="2"/>
<path fill-rule="evenodd" clip-rule="evenodd" d="M28.3204 77.3299L42.2545 29.4822V26.5336H52.734L68.0211 77.3315H59.0123L55.097 62.9979H40.073L36.4599 77.3315H28.3204V77.3299ZM42.5764 55.4862L48.0915 33.8594L53.7652 55.4862H42.5748H42.5764Z" fill="#D0D3D9" stroke="#D0D3D9" stroke-width="2"/>
<path d="M82.8777 39.8883H74.6696V77.6377H82.8777V39.8883Z" fill="#D0D3D9" stroke="#D0D3D9" stroke-width="2"/>
<path d="M78.9738 34.567C81.5775 34.567 83.6882 32.4605 83.6882 29.862C83.6882 27.2635 81.5775 25.157 78.9738 25.157C76.3701 25.157 74.2594 27.2635 74.2594 29.862C74.2594 32.4605 76.3701 34.567 78.9738 34.567Z" fill="#D0D3D9" fill-opacity="0.83" stroke="#D0D3D9" stroke-width="2"/>
</svg>
