<?xml version="1.0" encoding="UTF-8"?>
<!DOCTYPE svg PUBLIC "-//W3C//DTD SVG 1.1//EN" "http://www.w3.org/Graphics/SVG/1.1/DTD/svg11.dtd">
<!-- Creator: CorelDRAW -->
<svg xmlns="http://www.w3.org/2000/svg" xml:space="preserve" width="20.2846mm" height="17.7489mm" version="1.1" style="shape-rendering:geometricPrecision; text-rendering:geometricPrecision; image-rendering:optimizeQuality; fill-rule:evenodd; clip-rule:evenodd"
viewBox="0 0 748.37 654.82"
 xmlns:xlink="http://www.w3.org/1999/xlink"
 xmlns:xodm="http://www.corel.com/coreldraw/odm/2003">
 <defs>
  <style type="text/css">
   <![CDATA[
    .fil0 {fill:#EC268F;fill-rule:nonzero}
   ]]>
  </style>
 </defs>
 <g id="Capa_x0020_1">
  <metadata id="CorelCorpID_0Corel-Layer"/>
  <g id="_1828269627872">
   <path class="fil0" d="M386.22 3.34c-7.41,-4.45 -16.67,-4.45 -24.08,0l-316.73 190.04c-13.74,8.26 -24.89,19.73 -32.7,33.13l361.47 191.38 361.47 -191.38c-7.81,-13.4 -18.96,-24.87 -32.7,-33.13l-316.73 -190.04zm-163.99 242.69l41.49 -4.12c2.5,13.88 7.5,24.04 15.11,30.56 7.6,6.52 17.85,9.76 30.75,9.76 13.64,0 23.94,-2.89 30.85,-8.68 6.91,-5.78 10.4,-12.55 10.4,-20.31 0,-5 -1.47,-9.22 -4.36,-12.75 -2.9,-3.48 -7.99,-6.52 -15.26,-9.08 -4.95,-1.76 -16.23,-4.81 -33.89,-9.22 -22.71,-5.69 -38.65,-12.65 -47.82,-20.94 -12.9,-11.63 -19.32,-25.8 -19.32,-42.52 0,-10.74 3.04,-20.84 9.07,-30.22 6.08,-9.37 14.81,-16.48 26.24,-21.38 11.43,-4.9 25.16,-7.36 41.35,-7.36 26.34,0 46.2,5.84 59.49,17.56 13.34,11.72 20.31,27.32 20.99,46.89l-42.67 1.47c-1.82,-10.89 -5.69,-18.69 -11.63,-23.45 -5.94,-4.76 -14.86,-7.16 -26.73,-7.16 -12.26,0 -21.88,2.55 -28.79,7.65 -4.46,3.29 -6.72,7.65 -6.72,13.15 0,5 2.11,9.27 6.33,12.8 5.35,4.56 18.35,9.27 39,14.17 20.65,4.86 35.9,9.96 45.76,15.16 9.91,5.25 17.66,12.36 23.25,21.43 5.59,9.08 8.39,20.26 8.39,33.55 0,12.06 -3.34,23.39 -10.05,33.94 -6.72,10.54 -16.19,18.39 -28.45,23.49 -12.26,5.15 -27.56,7.7 -45.86,7.7 -26.63,0 -47.09,-6.13 -61.36,-18.44 -14.27,-12.26 -22.76,-30.16 -25.55,-53.66zm185.4 71.81l52.39 -217.77 30.31 0 -52.68 217.77 -30.02 0z"/>
   <path class="fil0" d="M748.35 272.72l-363.22 192.3c-6.84,3.62 -15.05,3.62 -21.89,0l-363.22 -192.3c-0.02,0.28 -0.02,0.58 -0.02,0.87l0 264.3c0,64.57 52.36,116.93 116.94,116.93l514.5 0c64.57,0 116.94,-52.36 116.94,-116.93l0 -264.3c0,-0.28 0,-0.59 -0.02,-0.87z"/>
  </g>
 </g>
</svg>
