<?xml version="1.0" encoding="UTF-8"?>
<!DOCTYPE svg PUBLIC "-//W3C//DTD SVG 1.1//EN" "http://www.w3.org/Graphics/SVG/1.1/DTD/svg11.dtd">
<!-- Creator: CorelDRAW 2020 (64-Bit) -->
<svg xmlns="http://www.w3.org/2000/svg" xml:space="preserve" width="264.637mm" height="319.086mm" version="1.1" style="shape-rendering:geometricPrecision; text-rendering:geometricPrecision; image-rendering:optimizeQuality; fill-rule:evenodd; clip-rule:evenodd"
viewBox="0 0 26463.72 31908.66"
 xmlns:xlink="http://www.w3.org/1999/xlink"
 xmlns:xodm="http://www.corel.com/coreldraw/odm/2003">
 <defs>
  <style type="text/css">
   <![CDATA[
    .fil1 {fill:black}
    .fil0 {fill:black;fill-rule:nonzero}
   ]]>
  </style>
 </defs>
 <g id="Capa_x0020_1">
  <metadata id="CorelCorpID_0Corel-Layer"/>
  <g id="_2618657952464">
   <path class="fil0" d="M5814.14 0l12681.12 0c1028.55,0 3005.1,1592.92 4709.76,3426.42 1735.06,1866.17 3258.69,4048.12 3258.69,5092.27l0 19377.12c0,1104.22 -451.25,2107.6 -1178.24,2834.59 -727,727 -1730.37,1178.25 -2834.6,1178.25l-16636.73 0c-1104.23,0 -2107.61,-451.25 -2834.6,-1178.25 -726.99,-726.99 -1178.24,-1730.37 -1178.24,-2834.59l0 -23882.98c0,-1104.23 451.25,-2107.6 1178.24,-2834.6 726.99,-726.99 1730.37,-1178.24 2834.6,-1178.24zm12681.12 1375.88l-12681.12 0c-724.46,0 -1383.56,296.86 -1861.83,775.13 -478.27,478.27 -775.13,1137.37 -775.13,1861.83l0 23882.98c0,724.46 296.86,1383.56 775.13,1861.83 478.27,478.27 1137.37,775.13 1861.83,775.13l16636.73 0c724.46,0 1383.58,-296.88 1861.83,-775.13 478.25,-478.26 775.13,-1137.37 775.13,-1861.83l0 -19377.12c0,-691.39 -1350.25,-2503.34 -2887.81,-4157.11 -1485.4,-1597.67 -3077.93,-2985.7 -3704.76,-2985.7z"/>
   <path class="fil1" d="M851.07 18656.94l16975.27 0c468.1,0 851.07,382.97 851.07,851.07l0 6470.65c0,468.1 -382.97,851.07 -851.07,851.07l-16975.27 0c-468.1,0 -851.07,-382.97 -851.07,-851.07l0 -6470.65c0,-468.1 382.97,-851.07 851.07,-851.07zm2658.4 6429.49l0 -4655.68 1721.46 0c302.49,0 533.84,15.17 694.11,44.43 223.95,37.94 411.8,110.55 563.57,216.75 151.78,107.28 273.82,256.84 366.18,448.65 92.32,191.83 137.95,403.15 137.95,633.98 0,394.48 -123.1,729.35 -370.4,1002.45 -246.24,274.18 -693.05,410.74 -1338.33,410.74l-1169.6 0 0 1898.68 -604.94 0zm604.94 -2444.89l1178.07 0c390.58,0 666.53,-73.68 831.03,-222.16 163.46,-148.47 245.17,-356.54 245.17,-626.39 0,-193.98 -47.77,-360.87 -144.34,-499.59 -96.56,-138.73 -223.93,-230.84 -381.01,-275.26 -101.89,-27.11 -289.73,-41.19 -562.5,-41.19l-1166.42 0 0 1664.59zm3642.49 2444.89l0 -4655.68 1570.76 0c354.5,0 625.13,21.67 811.93,66.11 261.08,61.78 483.96,173.39 668.63,333.78 240.92,208.07 420.31,472.52 539.17,795.46 119.93,322.94 179.37,692.5 179.37,1107.57 0,353.28 -40.34,666.48 -120.99,939.58 -80.67,273.11 -184.68,499.6 -310.99,678.42 -127.36,178.81 -265.32,319.68 -416.02,421.56 -149.66,102.96 -331.15,180.98 -543.41,234.09 -213.33,53.09 -457.44,79.11 -733.38,79.11l-1645.07 0zm604.97 -546.2l972.17 0c300.36,0 535.96,-28.17 706.84,-85.62 170.87,-57.42 306.73,-137.63 408.62,-241.66 142.23,-146.3 253.66,-343.54 333.26,-590.63 79.6,-247.09 119.93,-546.2 119.93,-898.41 0,-487.68 -78.54,-862.64 -234.56,-1124.9 -156,-262.26 -346,-437.84 -569.95,-526.69 -161.3,-63.94 -421.33,-95.37 -780.07,-95.37l-956.24 0 0 3563.28zm4025.61 546.2l0 -4655.68 3075.75 0 0 546.2 -2470.8 0 0 1450.02 2139.65 0 0 546.2 -2139.65 0 0 2113.26 -604.95 0z"/>
   <path class="fil0" d="M6285.43 6804.93c-76,0 -137.6,-61.6 -137.6,-137.6 0,-75.99 61.6,-137.59 137.6,-137.59l11924.19 0c75.99,0 137.6,61.6 137.6,137.59 0,76 -61.61,137.6 -137.6,137.6l-11924.19 0z"/>
   <path class="fil0" d="M6285.43 8880.21c-76,0 -137.6,-61.61 -137.6,-137.6 0,-75.99 61.6,-137.59 137.6,-137.59l15879.8 0c75.99,0 137.59,61.6 137.59,137.59 0,75.99 -61.6,137.6 -137.59,137.6l-15879.8 0z"/>
   <path class="fil0" d="M6285.43 10966.89c-76,0 -137.6,-61.6 -137.6,-137.59 0,-75.99 61.6,-137.6 137.6,-137.6l15879.8 0c75.99,0 137.59,61.61 137.59,137.6 0,75.99 -61.6,137.59 -137.59,137.59l-15879.8 0z"/>
   <path class="fil0" d="M6285.43 13030.68c-76,0 -137.6,-61.61 -137.6,-137.6 0,-75.99 61.6,-137.59 137.6,-137.59l15879.8 0c75.99,0 137.59,61.6 137.59,137.59 0,75.99 -61.6,137.6 -137.59,137.6l-15879.8 0z"/>
   <path class="fil0" d="M6285.43 15094.5c-76,0 -137.6,-61.61 -137.6,-137.6 0,-75.99 61.6,-137.59 137.6,-137.59l15879.8 0c75.99,0 137.59,61.6 137.59,137.59 0,75.99 -61.6,137.6 -137.59,137.6l-15879.8 0z"/>
  </g>
 </g>
</svg>
