<svg width="112" height="131" viewBox="0 0 112 131" fill="none" xmlns="http://www.w3.org/2000/svg">
<path d="M25.2876 0H78.4428C82.7541 0 91.0392 6.5265 98.1846 14.0387C105.457 21.6848 111.844 30.6246 111.844 34.9027V114.295C111.844 118.819 109.953 122.93 106.905 125.908C103.858 128.887 99.652 130.736 95.0234 130.736H25.2876C20.659 130.736 16.4531 128.887 13.4058 125.908C10.3585 122.93 8.467 118.819 8.467 114.295V16.4413C8.467 11.9171 10.3585 7.8061 13.4058 4.82744C16.4531 1.84882 20.659 0 25.2876 0ZM78.4428 5.63725H25.2876C22.2508 5.63725 19.4881 6.85354 17.4834 8.81311C15.4786 10.7727 14.2343 13.4731 14.2343 16.4414V114.295C14.2343 117.263 15.4786 119.963 17.4834 121.923C19.4881 123.882 22.2508 125.099 25.2876 125.099H95.0234C98.0602 125.099 100.823 123.882 102.828 121.923C104.832 119.963 106.077 117.263 106.077 114.295V34.9028C106.077 32.07 100.417 24.6461 93.972 17.8703C87.7456 11.3243 81.0703 5.63725 78.4428 5.63725Z" fill="#D0D3D9"/>
<path fill-rule="evenodd" clip-rule="evenodd" d="M4.48395 76.4411H75.6395C77.6017 76.4411 79.207 78.0102 79.207 79.9281V106.44C79.207 108.358 77.6017 109.927 75.6395 109.927H4.48395C2.52181 109.927 0.916504 108.358 0.916504 106.44V79.9281C0.916504 78.0102 2.52181 76.4411 4.48395 76.4411ZM15.6272 102.784V83.7088H22.8431C24.1111 83.7088 25.0808 83.7709 25.7526 83.8908C26.6914 84.0463 27.4788 84.3438 28.1149 84.7789C28.7512 85.2185 29.2627 85.8312 29.6499 86.6171C30.0368 87.4031 30.2281 88.2689 30.2281 89.2147C30.2281 90.831 29.7121 92.203 28.6755 93.322C27.6433 94.4453 25.7704 95.0049 23.0656 95.0049H18.163V102.784H15.6272ZM18.163 92.7669H23.1011C24.7383 92.7669 25.895 92.465 26.5845 91.8567C27.2697 91.2484 27.6122 90.3958 27.6122 89.2902C27.6122 88.4954 27.412 87.8116 27.0072 87.2433C26.6024 86.6749 26.0686 86.2975 25.4101 86.1155C24.983 86.0044 24.1956 85.9467 23.0523 85.9467H18.163V92.7669ZM33.4313 102.784V83.7088H40.0155C41.5014 83.7088 42.6358 83.7976 43.4188 83.9796C44.5132 84.2328 45.4475 84.6901 46.2215 85.3472C47.2314 86.1997 47.9834 87.2832 48.4816 88.6064C48.9843 89.9296 49.2335 91.4437 49.2335 93.1444C49.2335 94.5919 49.0644 95.8751 48.7263 96.9941C48.3882 98.1131 47.9522 99.041 47.4227 99.7737C46.8889 100.506 46.3106 101.084 45.6789 101.501C45.0516 101.923 44.2908 102.242 43.4011 102.46C42.5068 102.678 41.4836 102.784 40.3269 102.784H33.4313ZM35.9671 100.546H40.0422C41.3012 100.546 42.2888 100.431 43.0051 100.195C43.7213 99.9602 44.2908 99.6316 44.7179 99.2053C45.3141 98.6059 45.7812 97.7978 46.1148 96.7854C46.4485 95.773 46.6175 94.5475 46.6175 93.1044C46.6175 91.1063 46.2883 89.57 45.6343 88.4954C44.9804 87.4209 44.184 86.7015 43.2453 86.3374C42.5691 86.0755 41.4792 85.9467 39.9754 85.9467H35.9671V100.546ZM52.8414 102.784V83.7088H65.7341V85.9467H55.3771V91.8878H64.346V94.1257H55.3771V102.784H52.8414Z" fill="#D0D3D9"/>
<path d="M27.263 27.8811C26.9444 27.8811 26.6862 27.6287 26.6862 27.3173C26.6862 27.006 26.9444 26.7536 27.263 26.7536H77.2459C77.5644 26.7536 77.8226 27.006 77.8226 27.3173C77.8226 27.6287 77.5644 27.8811 77.2459 27.8811H27.263Z" fill="#D0D3D9"/>
<path d="M27.263 36.384C26.9444 36.384 26.6862 36.1315 26.6862 35.8202C26.6862 35.5088 26.9444 35.2564 27.263 35.2564H93.8267C94.1452 35.2564 94.4034 35.5088 94.4034 35.8202C94.4034 36.1315 94.1452 36.384 93.8267 36.384H27.263Z" fill="#D0D3D9"/>
<path d="M27.263 44.9335C26.9444 44.9335 26.6862 44.6811 26.6862 44.3697C26.6862 44.0584 26.9444 43.806 27.263 43.806H93.8267C94.1452 43.806 94.4034 44.0584 94.4034 44.3697C94.4034 44.6811 94.1452 44.9335 93.8267 44.9335H27.263Z" fill="#D0D3D9"/>
<path d="M27.263 53.3893C26.9444 53.3893 26.6862 53.1369 26.6862 52.8255C26.6862 52.5142 26.9444 52.2618 27.263 52.2618H93.8267C94.1452 52.2618 94.4034 52.5142 94.4034 52.8255C94.4034 53.1369 94.1452 53.3893 93.8267 53.3893H27.263Z" fill="#D0D3D9"/>
<path d="M27.263 61.8451C26.9444 61.8451 26.6862 61.5927 26.6862 61.2813C26.6862 60.97 26.9444 60.7176 27.263 60.7176H93.8267C94.1452 60.7176 94.4034 60.97 94.4034 61.2813C94.4034 61.5927 94.1452 61.8451 93.8267 61.8451H27.263Z" fill="#D0D3D9"/>
</svg>
