<?xml version="1.0" encoding="UTF-8"?>
<!DOCTYPE svg PUBLIC "-//W3C//DTD SVG 1.1//EN" "http://www.w3.org/Graphics/SVG/1.1/DTD/svg11.dtd">
<!-- Creator: CorelDRAW 2020 (64-Bit) -->
<svg xmlns="http://www.w3.org/2000/svg" xml:space="preserve" width="298.52mm" height="290.989mm" version="1.1" style="shape-rendering:geometricPrecision; text-rendering:geometricPrecision; image-rendering:optimizeQuality; fill-rule:evenodd; clip-rule:evenodd"
viewBox="0 0 29851.96 29098.92"
 xmlns:xlink="http://www.w3.org/1999/xlink"
 xmlns:xodm="http://www.corel.com/coreldraw/odm/2003">
 <defs>
  <style type="text/css">
   <![CDATA[
    .fil0 {fill:black}
   ]]>
  </style>
 </defs>
 <g id="Capa_x0020_1">
  <metadata id="CorelCorpID_0Corel-Layer"/>
  <path class="fil0" d="M5342.16 0l19167.64 0c2938.19,0 5342.16,2403.97 5342.16,5342.16l0 18414.6c0,2938.19 -2403.97,5342.16 -5342.16,5342.16l-19167.64 0c-2938.19,0 -5342.16,-2403.97 -5342.16,-5342.16l0 -18414.6c0,-2938.19 2403.97,-5342.16 5342.16,-5342.16zm3312.85 14488.3l0 -4180.52c240.76,-18.13 489.07,-13.73 731.71,-18.97 741.02,-16 1367.56,-36.86 2061.92,232.01 799.33,309.53 1202.25,988.94 1185.84,1878.2 -9.14,495.02 -107.23,848.01 -341.1,1174 -164.97,229.96 -524.07,515.32 -880.17,654.28 -837.79,326.94 -1806.77,305.31 -2758.2,261zm-2711.68 -6408.74l0 12730.78c0,151.99 39.93,193.41 188.65,193.41l2330.19 0c142.71,0 180.46,-67.34 180.46,-207.62l0 -3958.31c1330.71,36.57 2566.29,89.79 3854.02,-361.72 511.52,-179.35 1053.85,-476.46 1435.96,-822.99 36.49,-33.09 65.37,-50.28 99.64,-85.58 41.47,-42.72 54.86,-58.23 91.22,-93.16l190.53 -193.04c115.85,-148.25 215.49,-245.52 331.22,-421.67 809.1,-1231.5 901.13,-2975.11 384.87,-4283.11 -535.69,-1357.2 -1728.79,-2263.6 -3423.86,-2599.23 -1180.76,-233.8 -3034.86,-121.36 -4337.81,-94.15l-1108.1 25.35c-160.9,0.48 -216.99,-5.05 -216.99,171.04zm14272.28 2850.71c-1046.45,56.82 -1965.45,381.53 -2539.39,921.24 -109.14,102.63 -217.5,196.51 -316.74,322.81 -476.94,606.95 -726.92,1312.01 -646.21,2145.05 48.49,500.49 236.37,938.3 466.68,1254.31 512.72,703.5 1195.91,1074.57 2006.98,1445.97 203.95,93.4 409.87,160.93 620.48,245.85 207.77,83.77 410.96,164.39 611.45,255.92 331.83,151.51 886.3,434.68 785.51,899.6 -52.8,243.57 -203.83,361.99 -418.41,447.82 -214.5,85.8 -484.17,116.05 -731.78,127.88 -926.58,44.27 -2141.82,-222.62 -2846.91,-594.24 -97.65,-51.47 -177.93,-92.79 -279.2,-147.31 -91.69,-49.37 -224.71,-145.52 -248.25,29.28 -18.1,134.39 -0.79,1802.51 -2.76,2157.02 -0.86,155.32 52.11,224.95 162.12,275.29 1507.6,689.88 4276.99,815.8 5705.14,-117.76 616.76,-403.18 1222.11,-1068.42 1341.16,-2109.21 62.01,-542.13 -0.52,-1031.78 -188.08,-1490.99 -161.08,-394.41 -498,-782.18 -752.54,-980.96 -479.97,-374.82 -1095.38,-683.25 -1663.75,-922.42 -208.92,-87.92 -424.46,-152.71 -627.63,-238.9 -315.5,-133.85 -946.14,-406.84 -1123.43,-595.83 -78.61,-83.8 -126.35,-115.88 -187.2,-239.46 -142.39,-289.18 6.76,-670.9 414.03,-784.37 826.61,-230.31 2221.03,7.54 2949.21,305.78 104.53,42.82 192.44,81.29 293.56,132.35 92.17,46.55 205.88,111.35 329.25,50.11 96.5,-47.9 65.54,-242.86 65.54,-359.99l0.2 -1733.83c-0.42,-153.97 -16.36,-254.24 -131.72,-307.86 -735.79,-342.02 -2146.06,-442.09 -3047.31,-393.15z"/>
 </g>
</svg>
