<svg width="112" height="119" viewBox="0 0 112 119" fill="none" xmlns="http://www.w3.org/2000/svg">
<path fill-rule="evenodd" clip-rule="evenodd" d="M20.0617 0.932983H91.2872C102.205 0.932983 111.138 10.6699 111.138 22.5705V97.1559C111.138 109.057 102.205 118.793 91.2872 118.793H20.0617C9.14366 118.793 0.210693 109.057 0.210693 97.1559V22.5705C0.210693 10.6699 9.14366 0.932983 20.0617 0.932983ZM32.372 59.6155V42.683C33.2667 42.6095 34.1894 42.6274 35.091 42.6061C37.8446 42.5413 40.1727 42.4568 42.7529 43.5459C45.7232 44.7996 47.2204 47.5514 47.1594 51.1532C47.1255 53.1582 46.761 54.5879 45.8919 55.9083C45.2789 56.8397 43.9445 57.9955 42.6213 58.5584C39.5081 59.8826 35.9075 59.795 32.372 59.6155ZM22.2956 33.6579V85.2219C22.2956 85.8375 22.444 86.0053 22.9966 86.0053H31.6554C32.1857 86.0053 32.326 85.7325 32.326 85.1643V69.1318C37.2708 69.28 41.8621 69.4955 46.6472 67.6668C48.548 66.9403 50.5633 65.7369 51.9832 64.3334C52.1188 64.1993 52.2261 64.1297 52.3534 63.9867C52.5075 63.8137 52.5573 63.7509 52.6924 63.6094L53.4004 62.8275C53.8309 62.2271 54.2011 61.8331 54.6312 61.1196C57.6377 56.1316 57.9797 49.0694 56.0613 43.7716C54.0707 38.2745 49.6373 34.6032 43.3385 33.2438C38.9509 32.2969 32.0612 32.7523 27.2196 32.8625L23.1019 32.9652C22.5041 32.9671 22.2956 32.9447 22.2956 33.6579ZM75.3303 45.2043C71.4417 45.4344 68.0268 46.7496 65.8941 48.9356C65.4886 49.3513 65.0859 49.7315 64.7171 50.2431C62.9449 52.7015 62.016 55.5572 62.3159 58.9313C62.496 60.9584 63.1942 62.7317 64.05 64.0117C65.9552 66.8611 68.4939 68.364 71.5078 69.8683C72.2656 70.2466 73.0308 70.5201 73.8134 70.8641C74.5855 71.2034 75.3405 71.5299 76.0855 71.9007C77.3186 72.5143 79.379 73.6613 79.0044 75.5443C78.8082 76.5309 78.247 77.0105 77.4497 77.3582C76.6526 77.7057 75.6505 77.8282 74.7304 77.8761C71.2873 78.0554 66.7716 76.9744 64.1515 75.4693C63.7887 75.2608 63.4904 75.0934 63.114 74.8726C62.7733 74.6726 62.279 74.2832 62.1916 74.9912C62.1243 75.5355 62.1886 82.292 62.1813 83.7279C62.1781 84.3569 62.375 84.639 62.7837 84.8429C68.3859 87.6371 78.6767 88.1471 83.9836 84.3659C86.2754 82.7329 88.5248 80.0384 88.9672 75.8229C89.1977 73.6271 88.9653 71.6438 88.2683 69.7839C87.6698 68.1864 86.4178 66.6158 85.472 65.8106C83.6884 64.2925 81.4016 63.0433 79.2896 62.0745C78.5133 61.7184 77.7123 61.456 76.9574 61.1069C75.785 60.5648 73.4416 59.4591 72.7828 58.6936C72.4907 58.3542 72.3133 58.2242 72.0872 57.7237C71.5581 56.5524 72.1123 55.0063 73.6257 54.5467C76.6973 53.6139 81.8789 54.5773 84.5847 55.7853C84.9731 55.9587 85.2998 56.1145 85.6756 56.3213C86.0181 56.5099 86.4406 56.7723 86.899 56.5243C87.2576 56.3303 87.1426 55.5406 87.1426 55.0662L87.1433 48.0436C87.1417 47.42 87.0825 47.0138 86.6538 46.7967C83.9197 45.4114 78.6793 45.0061 75.3303 45.2043Z" fill="#D0D3D9"/>
</svg>
