<svg width="174" height="282" viewBox="0 0 174 282" fill="none" xmlns="http://www.w3.org/2000/svg">
<path d="M146.391 0H27.1094C19.9195 0 13.0241 2.85616 7.94015 7.94015C2.85616 13.0241 0 19.9195 0 27.1094V254.828C0 262.018 2.85616 268.913 7.94015 273.997C13.0241 279.081 19.9195 281.938 27.1094 281.938H146.391C149.951 281.938 153.476 281.236 156.765 279.874C160.054 278.512 163.043 276.515 165.56 273.997C168.077 271.48 170.074 268.491 171.436 265.202C172.799 261.913 173.5 258.388 173.5 254.828V27.1094C173.5 23.5493 172.799 20.0241 171.436 16.7351C170.074 13.446 168.077 10.4575 165.56 7.94015C163.043 5.42281 160.054 3.42595 156.765 2.06358C153.476 0.701205 149.951 0 146.391 0ZM162.656 254.828C162.656 259.142 160.943 263.279 157.892 266.33C154.842 269.38 150.705 271.094 146.391 271.094H27.1094C22.7955 271.094 18.6582 269.38 15.6078 266.33C12.5574 263.279 10.8438 259.142 10.8438 254.828V27.1094C10.8438 22.7955 12.5574 18.6582 15.6078 15.6078C18.6582 12.5574 22.7955 10.8438 27.1094 10.8438H146.391C150.705 10.8438 154.842 12.5574 157.892 15.6078C160.943 18.6582 162.656 22.7955 162.656 27.1094V254.828Z" fill="white"/>
<path d="M21.6875 227.719H151.812V43.375H21.6875V227.719ZM32.5312 54.2188H140.969V216.875H32.5312V54.2188Z" fill="white"/>
<path d="M86.75 260.25C92.7388 260.25 97.5938 255.395 97.5938 249.406C97.5938 243.417 92.7388 238.562 86.75 238.562C80.7612 238.562 75.9062 243.417 75.9062 249.406C75.9062 255.395 80.7612 260.25 86.75 260.25Z" fill="white"/>
<path d="M108.438 21.6875H65.0625V32.5312H108.438V21.6875Z" fill="white"/>
</svg>
