<?xml version="1.0" encoding="UTF-8"?>
<!DOCTYPE svg PUBLIC "-//W3C//DTD SVG 1.1//EN" "http://www.w3.org/Graphics/SVG/1.1/DTD/svg11.dtd">
<!-- Creator: CorelDRAW -->
<svg xmlns="http://www.w3.org/2000/svg" xml:space="preserve" width="32.5114mm" height="32.3494mm" version="1.1" style="shape-rendering:geometricPrecision; text-rendering:geometricPrecision; image-rendering:optimizeQuality; fill-rule:evenodd; clip-rule:evenodd"
viewBox="0 0 327.05 325.42"
 xmlns:xlink="http://www.w3.org/1999/xlink"
 xmlns:xodm="http://www.corel.com/coreldraw/odm/2003"
 enable-background="new 0 0 122.88 122.267">
 <defs>
  <style type="text/css">
   <![CDATA[
    .fil0 {fill:#FEFEFE;fill-rule:nonzero}
   ]]>
  </style>
 </defs>
 <g id="Capa_x0020_1">
  <metadata id="CorelCorpID_0Corel-Layer"/>
  <g id="_1981451528096">
   <g>
    <path class="fil0" d="M90.02 133.86c11.01,19.81 23.68,38.87 40.12,56.25 16.51,17.46 36.96,33.37 63.55,46.86l0.03 0.01 0.01 -0.01c1.94,0.99 3.78,0.96 5.51,0.31 2.51,-0.94 5.13,-3.03 7.67,-5.55 1.94,-1.93 4.37,-5.12 7,-8.58 10.24,-13.45 22.89,-30.08 40.76,-21.81 0.38,0.17 0.73,0.38 1.07,0.6l59.55 34.21c0.21,0.12 0.42,0.25 0.61,0.39 7.89,5.42 11.12,13.77 11.15,23.11 0.04,9.64 -3.54,20.43 -8.71,29.55 -6.83,12.02 -17,19.97 -28.64,25.35 -11.1,5.13 -23.42,7.86 -35.31,9.6 -18.6,2.73 -36.14,1 -54,-4.5 -17.43,-5.37 -35.07,-14.33 -54.3,-26.24l-1.4 -0.87c-8.85,-5.48 -18.38,-11.38 -27.65,-18.38 -34.24,-25.84 -69.11,-63.14 -91.72,-104.07 -19.03,-34.46 -29.45,-71.62 -23.77,-107.06 3.11,-19.45 11.5,-37.1 25.96,-48.79 12.67,-10.25 29.78,-15.81 51.76,-13.85 2.59,0.22 4.77,1.7 6,3.78l0.02 -0.01 38.12 64.6c5.62,7.23 6.24,14.41 3.2,21.55 -2.51,5.9 -7.7,11.31 -14.58,16.42 -2.09,1.73 -4.55,3.53 -7.08,5.38 -8.51,6.23 -18.25,13.36 -14.94,21.75l0 0zm28.87 66.89c-17.58,-18.58 -30.97,-38.7 -42.52,-59.5 -0.2,-0.33 -0.38,-0.67 -0.54,-1.04 -8.45,-19.85 6.71,-30.94 19.94,-40.62 2.25,-1.64 4.43,-3.24 6.39,-4.87l0.01 0.01c0.11,-0.1 0.23,-0.19 0.36,-0.28 4.91,-3.6 8.44,-7.05 9.79,-10.21 0.77,-1.81 0.48,-3.8 -1.24,-6.03 -0.3,-0.34 -0.57,-0.72 -0.81,-1.13l-36.3 -61.5c-15.62,-0.64 -27.73,3.52 -36.69,10.76 -11.28,9.13 -17.89,23.31 -20.43,39.12 -5.07,31.66 4.57,65.46 22.07,97.15 21.5,38.92 54.76,74.46 87.47,99.14 8.99,6.79 18.03,12.38 26.43,17.59l1.4 0.87c18.15,11.24 34.65,19.66 50.71,24.6 15.64,4.81 30.97,6.33 47.19,3.96 10.67,-1.56 21.59,-3.95 31.06,-8.33 8.92,-4.13 16.63,-10.07 21.65,-18.91 3.98,-7.02 6.73,-15.05 6.71,-21.88 -0.02,-4.34 -1.26,-8.06 -4.27,-10.23l-59.22 -34.01c-6.55,-2.88 -14.98,8.2 -21.81,17.17 -2.94,3.86 -5.66,7.43 -8.4,10.16 -3.93,3.9 -8.3,7.25 -13.21,9.08 -5.69,2.13 -11.7,2.22 -17.98,-0.98l0.01 -0.01c-28.25,-14.33 -50.07,-31.35 -67.78,-50.07l0 0z"/>
   </g>
  </g>
 </g>
</svg>
