<svg width="38" height="38" viewBox="0 0 38 38" fill="none" xmlns="http://www.w3.org/2000/svg">
<path d="M19.8408 0.0320625C21.9129 0 23.9733 0.019 26.0312 0C26.1559 2.42369 27.0275 4.8925 28.8016 6.60606C30.5722 8.36238 33.0766 9.16631 35.5134 9.43825V15.8139C33.2298 15.7391 30.9356 15.2641 28.8634 14.2809C27.9609 13.8724 27.1201 13.3463 26.2972 12.8084C26.2865 17.4349 26.3162 22.0554 26.2675 26.6629C26.144 28.8764 25.4137 31.0793 24.1264 32.9033C22.0554 35.9397 18.4609 37.9192 14.7689 37.981C12.5044 38.1104 10.2422 37.4929 8.31251 36.3553C5.11457 34.4696 2.86426 31.0175 2.53651 27.3125C2.49851 26.5204 2.48545 25.7296 2.51751 24.9565C2.80251 21.9438 4.29282 19.0618 6.60607 17.1012C9.22807 14.8176 12.901 13.7299 16.34 14.3735C16.3721 16.7188 16.2783 19.0618 16.2783 21.4071C14.7072 20.8988 12.8713 21.0413 11.4986 21.9949C10.4963 22.6444 9.73513 23.6396 9.33851 24.7653C9.01076 25.5681 9.10457 26.4599 9.12357 27.3125C9.50001 29.9107 11.9985 32.0946 14.6656 31.8582C16.4338 31.8392 18.1284 30.8133 19.0499 29.3111C19.3479 28.785 19.6816 28.2471 19.6994 27.6284C19.855 24.7962 19.7933 21.9759 19.8123 19.1437C19.8253 12.7609 19.7933 6.39587 19.8419 0.03325L19.8408 0.0320625Z" fill="#09FFFF"/>
</svg>
