<svg width="430" height="597" viewBox="0 0 430 597" fill="none" xmlns="http://www.w3.org/2000/svg">
<path d="M214.667 518.156L362.574 370.25C365.321 367.63 371.326 361.411 371.583 361.143L371.703 361.015C408.87 321.151 429.339 269.178 429.339 214.67C429.339 96.3001 333.039 0 214.67 0C96.3001 0 0 96.3001 0 214.67C0 269.179 20.4685 321.152 57.6327 361.015L214.667 518.156ZM214.67 20.6447C321.654 20.6447 408.695 107.684 408.695 214.67C408.695 263.904 390.216 310.853 356.664 346.874C354.921 348.679 350.201 353.532 348.257 355.377L214.671 488.955L72.6149 346.809C39.0965 310.797 20.644 263.878 20.644 214.67C20.644 107.684 107.682 20.6447 214.67 20.6447Z" fill="white"/>
<path d="M247.749 72.2747C284.792 72.2747 356.885 112.78 356.885 187.03C356.885 192.731 361.505 197.352 367.207 197.352C372.907 197.352 377.529 192.731 377.529 187.03C377.529 148.381 360.448 112.549 329.436 86.1334C304.825 65.1738 272.762 51.6304 247.749 51.6304C242.049 51.6304 237.427 56.2514 237.427 61.9527C237.427 67.6541 242.049 72.2747 247.749 72.2747Z" fill="white"/>
<path d="M344.219 452.76C336.178 449.474 327.518 446.547 318.379 443.962L301.471 460.872C351.307 472.765 382.034 493.967 382.034 513.668C382.034 543.135 313.302 575.969 214.669 575.969C116.04 575.969 47.3044 543.135 47.3044 513.668C47.3044 493.968 78.0316 472.765 127.868 460.872L110.958 443.962C101.822 446.547 93.1606 449.474 85.1223 452.76C47.4224 468.169 26.6604 489.799 26.6604 513.668C26.6604 537.536 47.4227 559.166 85.1223 574.575C119.893 588.786 165.9 596.613 214.669 596.613C263.439 596.613 309.448 588.786 344.219 574.575C381.919 559.167 402.678 537.536 402.678 513.668C402.678 489.799 381.919 468.169 344.219 452.76Z" fill="white"/>
<path d="M215.263 313.455C157.92 313.455 111.267 266.805 111.267 209.463C111.267 152.121 157.92 105.47 215.263 105.47C272.605 105.47 319.258 152.121 319.258 209.463C319.258 266.804 272.605 313.455 215.263 313.455ZM215.263 126.115C169.303 126.115 131.912 163.505 131.912 209.463C131.912 255.421 169.303 292.811 215.263 292.811C261.222 292.811 298.614 255.421 298.614 209.463C298.614 163.505 261.222 126.115 215.263 126.115Z" fill="white"/>
</svg>
