<svg width="45" height="45" viewBox="0 0 45 45" fill="none" xmlns="http://www.w3.org/2000/svg">
<path d="M3.75 41.25L6.3966 31.6296C4.77041 28.8073 3.91643 25.6065 3.92061 22.3492C3.90178 12.0853 12.2371 3.75 22.4812 3.75C27.4532 3.75 32.1216 5.67761 35.6366 9.19387C37.3693 10.9175 38.7426 12.9678 39.6771 15.226C40.6116 17.4842 41.0886 19.9054 41.0805 22.3492C41.0805 32.5935 32.7452 40.9288 22.5 40.9288C19.3815 40.9288 16.3383 40.1533 13.6163 38.661L3.75 41.25ZM14.0517 35.3154L14.6189 35.6554C16.9997 37.0642 19.7149 37.8082 22.4812 37.8101C30.987 37.8101 37.9243 30.8741 37.9243 22.3671C37.9243 18.2471 36.318 14.3541 33.4065 11.4439C31.9749 10.0041 30.2724 8.86192 28.3974 8.08314C26.5222 7.30434 24.5115 6.90435 22.4812 6.90621C13.9564 6.90731 7.02142 13.8434 7.02142 22.3504C7.02142 25.2608 7.83456 28.1156 9.38441 30.5728L9.74334 31.1588L8.17466 36.8663L14.0517 35.3154Z" fill="#09FFFF"/>
<path fill-rule="evenodd" clip-rule="evenodd" d="M17.8504 14.5624C17.5103 13.7869 17.1326 13.7681 16.8113 13.7681C16.5277 13.7493 16.2241 13.7493 15.9029 13.7493C15.6015 13.7493 15.0908 13.8623 14.6566 14.3353C14.2212 14.8072 13.0314 15.9228 13.0314 18.2094C13.0314 20.4971 14.6942 22.7083 14.9213 23.0107C15.1473 23.3132 18.134 28.1511 22.86 30.0232C26.7906 31.5731 27.585 31.2707 28.4357 31.1754C29.2854 31.0813 31.1766 30.0609 31.5731 28.9642C31.9509 27.8874 31.9509 26.9424 31.8379 26.7529C31.7248 26.5646 31.4025 26.4504 30.9495 26.2046C30.4764 25.9785 28.2086 24.8441 27.7744 24.6924C27.339 24.5417 27.0366 24.4663 26.7341 24.9195C26.4317 25.3926 25.5431 26.4317 25.2607 26.7341C24.9949 27.0366 24.7123 27.0742 24.2582 26.8472C23.7862 26.6211 22.2928 26.1292 20.5159 24.5417C19.1355 23.3121 18.2094 21.7821 17.9258 21.3291C17.6621 20.856 17.8881 20.61 18.134 20.3829C18.3423 20.1757 18.6071 19.8356 18.8342 19.5709C19.0601 19.305 19.1355 19.0978 19.3061 18.7954C19.4569 18.493 19.3815 18.2094 19.2684 17.9834C19.1544 17.7751 18.267 15.4885 17.8504 14.5624Z" fill="#09FFFF"/>
</svg>
