<svg width="665" height="668" viewBox="0 0 665 668" fill="none" xmlns="http://www.w3.org/2000/svg">
<path d="M0.666626 667.333L47.7173 496.303C18.8073 446.13 3.62529 389.226 3.69963 331.32C3.36496 148.849 151.548 0.666504 333.667 0.666504C422.057 0.666504 505.05 34.9352 567.54 97.4465C598.343 128.088 622.757 164.538 639.37 204.684C655.983 244.83 664.463 287.873 664.32 331.32C664.32 513.44 516.137 661.623 334 661.623C278.56 661.623 224.458 647.836 176.068 621.306L0.666626 667.333ZM183.808 561.83L193.892 567.873C236.216 592.92 284.487 606.146 333.667 606.18C484.88 606.18 608.21 482.873 608.21 331.636C608.21 258.392 579.653 189.185 527.893 137.447C502.443 111.851 472.177 91.5452 438.843 77.7002C405.507 63.8548 369.76 56.7438 333.667 56.7768C182.114 56.7965 58.8253 180.105 58.8253 331.34C58.8253 383.08 73.281 433.833 100.834 477.516L107.215 487.933L79.3273 589.4L183.808 561.83Z" fill="white"/>
<path fill-rule="evenodd" clip-rule="evenodd" d="M251.341 192.887C245.295 179.101 238.579 178.766 232.868 178.766C227.826 178.431 222.429 178.431 216.718 178.431C211.361 178.431 202.282 180.44 194.561 188.849C186.821 197.239 165.669 217.072 165.669 257.722C165.669 298.393 195.231 337.703 199.268 343.08C203.286 348.456 256.383 434.463 340.4 467.746C410.277 495.3 424.4 489.923 439.523 488.23C454.63 486.556 488.25 468.416 495.3 448.92C502.017 429.776 502.017 412.976 500.007 409.606C497.997 406.26 492.267 404.23 484.213 399.86C475.803 395.84 435.487 375.673 427.767 372.976C420.027 370.296 414.65 368.956 409.273 377.013C403.897 385.423 388.1 403.896 383.08 409.273C378.353 414.65 373.33 415.32 365.257 411.283C356.867 407.263 330.317 398.52 298.727 370.296C274.187 348.436 257.722 321.236 252.68 313.183C247.993 304.773 252.011 300.4 256.383 296.363C260.086 292.68 264.793 286.633 268.83 281.926C272.847 277.2 274.187 273.516 277.22 268.14C279.9 262.764 278.56 257.722 276.55 253.704C274.523 250.002 258.746 209.352 251.341 192.887Z" fill="white"/>
</svg>
